<svg id="Layer_1" data-name="Layer 1" xmlns="http://www.w3.org/2000/svg" viewBox="0 0 128.77 91.08"><defs><style>.cls-1{fill:#002b43;}.cls-2{fill:#c9dfed;}</style></defs><path class="cls-1" d="M6.54,5A55.2,55.2,0,0,1,22.26,22c4.08,7,4.22,11.13,8.3,17.91A51.54,51.54,0,0,0,46.84,56.43a48.16,48.16,0,0,1-14.31,16,48,48,0,0,1-16.69,7.49,10.7,10.7,0,0,1-12.57-7C-1.3,59.3-.35,49.8,1.72,43.32,3.2,38.69,5.7,34.21,7,26.07A60.85,60.85,0,0,0,6.54,5Z"/><path class="cls-1" d="M120.84,44.07c-9.66,15.75-27,21.7-26.62,22.43.34.58,11.53-2.87,20.76-12.39a48.42,48.42,0,0,0,12.71-24.72,47.93,47.93,0,0,0,0-17C128.3,21.75,127.36,33.45,120.84,44.07Z"/><path class="cls-2" d="M11.6,83.24a1.49,1.49,0,0,1,.27-2.84c8.52-1.63,24.43-6.9,37-26.81C61.52,33.53,59.18,13.13,58.34,7.51A115.24,115.24,0,0,1,71.88,36.34c2.82,9.25,4.33,18.72,12.53,25.81A28.86,28.86,0,0,0,88,64.81a10.13,10.13,0,0,0,9,.83A49,49,0,0,0,117.6,50.83C134.69,29.56,125.71,2.14,125,0c1.21,3.36,10.84,31.66-6.19,57.94C107.53,75.31,90.22,81.67,80.2,85.33,49.07,96.67,25.16,88.65,11.6,83.24Z"/></svg>